<svg width="24" height="24" viewBox="0 0 24 24" fill="none" xmlns="http://www.w3.org/2000/svg">
<path d="M11.8021 1.0079H0.957764V22.6966H22.6464V18.8691V13.2981" stroke="#C6D6FF"/>
<path d="M9.31737 14.4034C9.32593 14.4907 9.40006 14.446 9.43796 14.4081" stroke="#ABBCE9" stroke-width="3" stroke-linecap="round"/>
<path d="M7.4679 12.4026H9.26612C10.3707 12.4026 11.2661 13.298 11.2661 14.4026L11.2661 16.2008" stroke="#ABBCE9" stroke-width="0.5"/>
<path d="M18.6001 3.52658C18.6179 3.53477 18.6302 3.55076 18.6439 3.56421C18.7003 3.61933 18.7623 3.66641 18.8253 3.71353C18.8889 3.761 18.9518 3.80545 19.0197 3.84619C19.1749 3.93931 19.2203 4.14369 19.3196 4.28549C19.4688 4.4987 19.7152 4.6086 19.8786 4.81118C19.9331 4.87879 19.952 4.95772 19.944 5.04318C19.9417 5.0675 19.7442 4.98558 19.7218 4.97901C19.5836 4.93834 19.6631 5.06079 19.6947 5.13449C19.7121 5.17507 19.7093 5.21523 19.7243 5.25728C19.7395 5.29966 19.7575 5.3409 19.7774 5.3813C19.7852 5.39723 19.8513 5.52045 19.807 5.4467C19.6305 5.15303 19.4828 4.8402 19.2844 4.56006C19.1497 4.36998 18.977 4.16849 18.7643 4.06214C18.5978 3.97891 18.4573 3.89171 18.3323 3.74932C18.2661 3.67382 18.2251 3.57353 18.1559 3.50436" stroke="#A4B8EB" stroke-width="3" stroke-linecap="round"/>
<path d="M20.1552 8.09177L15.6789 3.61551" stroke="#E1EAFF"/>
<path d="M17.6253 1.76093L8.53272 10.8535C8.39362 10.9926 8.29863 11.1696 8.25965 11.3625L7.25665 16.3242C7.2283 16.4645 7.35208 16.5882 7.49231 16.5599L12.4541 15.5569C12.6469 15.5179 12.824 15.4229 12.9631 15.2838L22.0556 6.19127C22.4461 5.80075 22.4461 5.16758 22.0556 4.77706L19.0395 1.76093C18.649 1.37041 18.0158 1.37041 17.6253 1.76093Z" stroke="#E1EAFF"/>
</svg>
